{
  "accessors": [
    {
      "name": "body_1_positions",
      "componentType": 5126,
      "count": 10448,
      "min": [
        -0.05869999900460243,
        -0.06080000102519989,
        -0.08730000257492065
      ],
      "max": [
        0.05869999900460243,
        0.022199999541044235,
        0.13210000097751617
      ],
      "type": "VEC3",
      "bufferView": 0,
      "byteOffset": 0
    },
    {
      "name": "body_1_normals",
      "componentType": 5126,
      "count": 10448,
      "min": [
        -1,
        -1,
        -1
      ],
      "max": [
        1,
        0.9998000264167786,
        0.9995999932289124
      ],
      "type": "VEC3",
      "bufferView": 0,
      "byteOffset": 241920
    },
    {
      "name": "body_1_texcoords",
      "componentType": 5126,
      "count": 10448,
      "min": [
        0.011500000022351742,
        0.012000000104308128
      ],
      "max": [
        0.9837999939918518,
        0.9919000267982483
      ],
      "type": "VEC2",
      "bufferView": 1,
      "byteOffset": 0
    },
    {
      "name": "body_1_0_indices",
      "componentType": 5123,
      "count": 42180,
      "min": [
        0
      ],
      "max": [
        10447
      ],
      "type": "SCALAR",
      "bufferView": 2,
      "byteOffset": 0
    },
    {
      "name": "touchpad_1_positions",
      "componentType": 5126,
      "count": 2372,
      "min": [
        -0.021400000900030136,
        0.009800000116229057,
        -0.0142000000923872
      ],
      "max": [
        0.021400000900030136,
        0.022299999371170998,
        0.02889999933540821
      ],
      "type": "VEC3",
      "bufferView": 0,
      "byteOffset": 125376
    },
    {
      "name": "touchpad_1_normals",
      "componentType": 5126,
      "count": 2372,
      "min": [
        -0.9987999796867371,
        -0.1137000024318695,
        -0.9922999739646912
      ],
      "max": [
        0.9987999796867371,
        0.9998999834060669,
        0.9922999739646912
      ],
      "type": "VEC3",
      "bufferView": 0,
      "byteOffset": 367296
    },
    {
      "name": "touchpad_1_texcoords",
      "componentType": 5126,
      "count": 2372,
      "min": [
        0.2134999930858612,
        0.2467000037431717
      ],
      "max": [
        0.39089998602867126,
        0.42399999499320984
      ],
      "type": "VEC2",
      "bufferView": 1,
      "byteOffset": 83584
    },
    {
      "name": "touchpad_1_0_indices",
      "componentType": 5123,
      "count": 2496,
      "min": [
        0
      ],
      "max": [
        2371
      ],
      "type": "SCALAR",
      "bufferView": 2,
      "byteOffset": 84360
    },
    {
      "name": "trigger_1_positions",
      "componentType": 5126,
      "count": 3446,
      "min": [
        -0.009499999694526196,
        -0.02370000071823597,
        -0.0026000000070780516
      ],
      "max": [
        0.009600000455975533,
        -0.001500000013038516,
        0.01640000008046627
      ],
      "type": "VEC3",
      "bufferView": 0,
      "byteOffset": 153840
    },
    {
      "name": "trigger_1_normals",
      "componentType": 5126,
      "count": 3446,
      "min": [
        -1,
        -0.9990000128746033,
        -0.9914000034332275
      ],
      "max": [
        1,
        0.1597999930381775,
        1
      ],
      "type": "VEC3",
      "bufferView": 0,
      "byteOffset": 395760
    },
    {
      "name": "trigger_1_texcoords",
      "componentType": 5126,
      "count": 3446,
      "min": [
        0.004900000058114529,
        0.09040000289678574
      ],
      "max": [
        0.08380000293254852,
        0.5918999910354614
      ],
      "type": "VEC2",
      "bufferView": 1,
      "byteOffset": 102560
    },
    {
      "name": "trigger_1_0_indices",
      "componentType": 5123,
      "count": 3456,
      "min": [
        0
      ],
      "max": [
        3445
      ],
      "type": "SCALAR",
      "bufferView": 2,
      "byteOffset": 89352
    },
    {
      "name": "leftgrip_1_positions",
      "componentType": 5126,
      "count": 1176,
      "min": [
        -0.022299999371170998,
        -0.006800000090152025,
        0.03099999949336052
      ],
      "max": [
        -0.012199999764561653,
        0.008299999870359898,
        0.060499999672174454
      ],
      "type": "VEC3",
      "bufferView": 0,
      "byteOffset": 195192
    },
    {
      "name": "leftgrip_1_normals",
      "componentType": 5126,
      "count": 1176,
      "min": [
        -0.9997000098228455,
        -0.9835000038146973,
        -0.9991999864578247
      ],
      "max": [
        0.4187999963760376,
        0.911899983882904,
        0.9995999932289124
      ],
      "type": "VEC3",
      "bufferView": 0,
      "byteOffset": 437112
    },
    {
      "name": "leftgrip_1_texcoords",
      "componentType": 5126,
      "count": 1176,
      "min": [
        0.5659999847412109,
        0.8726999759674072
      ],
      "max": [
        0.7633000016212463,
        0.9884999990463257
      ],
      "type": "VEC2",
      "bufferView": 1,
      "byteOffset": 130128
    },
    {
      "name": "leftgrip_1_0_indices",
      "componentType": 5123,
      "count": 1176,
      "min": [
        0
      ],
      "max": [
        1175
      ],
      "type": "SCALAR",
      "bufferView": 2,
      "byteOffset": 96264
    },
    {
      "name": "rightgrip_1_positions",
      "componentType": 5126,
      "count": 1174,
      "min": [
        0.012199999764561653,
        -0.006800000090152025,
        0.03099999949336052
      ],
      "max": [
        0.022199999541044235,
        0.008299999870359898,
        0.060499999672174454
      ],
      "type": "VEC3",
      "bufferView": 0,
      "byteOffset": 209304
    },
    {
      "name": "rightgrip_1_normals",
      "componentType": 5126,
      "count": 1174,
      "min": [
        -0.4187000095844269,
        -0.9846000075340271,
        -0.9991999864578247
      ],
      "max": [
        0.9998000264167786,
        0.911899983882904,
        0.9995999932289124
      ],
      "type": "VEC3",
      "bufferView": 0,
      "byteOffset": 451224
    },
    {
      "name": "rightgrip_1_texcoords",
      "componentType": 5126,
      "count": 1174,
      "min": [
        0.7861999869346619,
        0.8726999759674072
      ],
      "max": [
        0.9835000038146973,
        0.9884999990463257
      ],
      "type": "VEC2",
      "bufferView": 1,
      "byteOffset": 139536
    },
    {
      "name": "rightgrip_1_0_indices",
      "componentType": 5123,
      "count": 1176,
      "min": [
        0
      ],
      "max": [
        1173
      ],
      "type": "SCALAR",
      "bufferView": 2,
      "byteOffset": 98616
    },
    {
      "name": "menubutton_1_positions",
      "componentType": 5126,
      "count": 752,
      "min": [
        -0.004999999888241291,
        0.018300000578165054,
        -0.026499999687075615
      ],
      "max": [
        0.004999999888241291,
        0.02280000038444996,
        -0.01640000008046627
      ],
      "type": "VEC3",
      "bufferView": 0,
      "byteOffset": 223392
    },
    {
      "name": "menubutton_1_normals",
      "componentType": 5126,
      "count": 752,
      "min": [
        -0.9915000200271606,
        -0.04670000076293945,
        -0.9902999997138977
      ],
      "max": [
        0.9915000200271606,
        0.9998999834060669,
        0.9902999997138977
      ],
      "type": "VEC3",
      "bufferView": 0,
      "byteOffset": 465312
    },
    {
      "name": "menubutton_1_texcoords",
      "componentType": 5126,
      "count": 752,
      "min": [
        0.36910000443458557,
        0.1987999975681305
      ],
      "max": [
        0.46209999918937683,
        0.29190000891685486
      ],
      "type": "VEC2",
      "bufferView": 1,
      "byteOffset": 148928
    },
    {
      "name": "menubutton_1_0_indices",
      "componentType": 5123,
      "count": 792,
      "min": [
        0
      ],
      "max": [
        751
      ],
      "type": "SCALAR",
      "bufferView": 2,
      "byteOffset": 100968
    },
    {
      "name": "systembutton_1_positions",
      "componentType": 5126,
      "count": 792,
      "min": [
        -0.004999999888241291,
        0.014999999664723873,
        0.04170000180602074
      ],
      "max": [
        0.004999999888241291,
        0.019200000911951065,
        0.052000001072883606
      ],
      "type": "VEC3",
      "bufferView": 0,
      "byteOffset": 232416
    },
    {
      "name": "systembutton_1_normals",
      "componentType": 5126,
      "count": 792,
      "min": [
        -0.9922000169754028,
        -0.11180000007152557,
        -0.9821000099182129
      ],
      "max": [
        0.9922000169754028,
        0.9995999932289124,
        0.9900000095367432
      ],
      "type": "VEC3",
      "bufferView": 0,
      "byteOffset": 474336
    },
    {
      "name": "systembutton_1_texcoords",
      "componentType": 5126,
      "count": 792,
      "min": [
        0.3736000061035156,
        0.38679999113082886
      ],
      "max": [
        0.46389999985694885,
        0.476500004529953
      ],
      "type": "VEC2",
      "bufferView": 1,
      "byteOffset": 154944
    },
    {
      "name": "systembutton_1_0_indices",
      "componentType": 5123,
      "count": 792,
      "min": [
        0
      ],
      "max": [
        791
      ],
      "type": "SCALAR",
      "bufferView": 2,
      "byteOffset": 102552
    }
  ],
  "asset": {
    "generator": "obj2gltf",
    "version": "2.0"
  },
  "buffers": [
    {
      "name": "vr_controller_vive",
      "byteLength": 749256,
      "uri": "data:application/octet-stream;base64,"
    }
  ],
  "bufferViews": [
    {
      "name": "bufferView_0",
      "buffer": 0,
      "byteLength": 483840,
      "byteOffset": 0,
      "byteStride": 12,
      "target": 34962
    },
    {
      "name": "bufferView_1",
      "buffer": 0,
      "byteLength": 161280,
      "byteOffset": 483840,
      "byteStride": 8,
      "target": 34962
    },
    {
      "name": "bufferView_2",
      "buffer": 0,
      "byteLength": 104136,
      "byteOffset": 645120,
      "target": 34963
    }
  ],
  "materials": [
    {
      "name": "body",
      "pbrMetallicRoughness": {
        "baseColorFactor": [
          0.5882,
          0.5882,
          0.5882,
          1
        ],
        "metallicFactor": 0,
        "roughnessFactor": 0.99
      },
      "emissiveFactor": [
        0,
        0,
        0
      ],
      "alphaMode": "OPAQUE",
      "doubleSided": false
    },
    {
      "name": "touchpad",
      "pbrMetallicRoughness": {
        "baseColorFactor": [
          0.5882,
          0.5882,
          0.5882,
          1
        ],
        "metallicFactor": 0,
        "roughnessFactor": 0.99
      },
      "emissiveFactor": [
        0,
        0,
        0
      ],
      "alphaMode": "OPAQUE",
      "doubleSided": false
    },
    {
      "name": "trigger",
      "pbrMetallicRoughness": {
        "baseColorFactor": [
          0.5882,
          0.5882,
          0.5882,
          1
        ],
        "metallicFactor": 0,
        "roughnessFactor": 0.99
      },
      "emissiveFactor": [
        0,
        0,
        0
      ],
      "alphaMode": "OPAQUE",
      "doubleSided": false
    },
    {
      "name": "leftgrip",
      "pbrMetallicRoughness": {
        "baseColorFactor": [
          0.588,
          0.588,
          0.588,
          1
        ],
        "metallicFactor": 0,
        "roughnessFactor": 0.99
      },
      "emissiveFactor": [
        0,
        0,
        0
      ],
      "alphaMode": "OPAQUE",
      "doubleSided": false
    },
    {
      "name": "rightgrip",
      "pbrMetallicRoughness": {
        "baseColorFactor": [
          0.5882,
          0.5882,
          0.5882,
          1
        ],
        "metallicFactor": 0,
        "roughnessFactor": 0.99
      },
      "emissiveFactor": [
        0,
        0,
        0
      ],
      "alphaMode": "OPAQUE",
      "doubleSided": false
    },
    {
      "name": "menubutton",
      "pbrMetallicRoughness": {
        "baseColorFactor": [
          0.5882,
          0.5882,
          0.5882,
          1
        ],
        "metallicFactor": 0,
        "roughnessFactor": 0.99
      },
      "emissiveFactor": [
        0,
        0,
        0
      ],
      "alphaMode": "OPAQUE",
      "doubleSided": false
    },
    {
      "name": "systembutton",
      "pbrMetallicRoughness": {
        "baseColorFactor": [
          0.5882,
          0.5882,
          0.5882,
          1
        ],
        "metallicFactor": 0,
        "roughnessFactor": 0.99
      },
      "emissiveFactor": [
        0,
        0,
        0
      ],
      "alphaMode": "OPAQUE",
      "doubleSided": false
    }
  ],
  "meshes": [
    {
      "name": "body_1",
      "primitives": [
        {
          "attributes": {
            "POSITION": 0,
            "NORMAL": 1,
            "TEXCOORD_0": 2
          },
          "indices": 3,
          "material": 0,
          "mode": 4
        }
      ]
    },
    {
      "name": "touchpad_1",
      "primitives": [
        {
          "attributes": {
            "POSITION": 4,
            "NORMAL": 5,
            "TEXCOORD_0": 6
          },
          "indices": 7,
          "material": 1,
          "mode": 4
        }
      ]
    },
    {
      "name": "trigger_1",
      "primitives": [
        {
          "attributes": {
            "POSITION": 8,
            "NORMAL": 9,
            "TEXCOORD_0": 10
          },
          "indices": 11,
          "material": 2,
          "mode": 4
        }
      ]
    },
    {
      "name": "leftgrip_1",
      "primitives": [
        {
          "attributes": {
            "POSITION": 12,
            "NORMAL": 13,
            "TEXCOORD_0": 14
          },
          "indices": 15,
          "material": 3,
          "mode": 4
        }
      ]
    },
    {
      "name": "rightgrip_1",
      "primitives": [
        {
          "attributes": {
            "POSITION": 16,
            "NORMAL": 17,
            "TEXCOORD_0": 18
          },
          "indices": 19,
          "material": 4,
          "mode": 4
        }
      ]
    },
    {
      "name": "menubutton_1",
      "primitives": [
        {
          "attributes": {
            "POSITION": 20,
            "NORMAL": 21,
            "TEXCOORD_0": 22
          },
          "indices": 23,
          "material": 5,
          "mode": 4
        }
      ]
    },
    {
      "name": "systembutton_1",
      "primitives": [
        {
          "attributes": {
            "POSITION": 24,
            "NORMAL": 25,
            "TEXCOORD_0": 26
          },
          "indices": 27,
          "material": 6,
          "mode": 4
        }
      ]
    }
  ],
  "nodes": [
    {
      "name": "body",
      "mesh": 0
    },
    {
      "name": "touchpad",
      "mesh": 1
    },
    {
      "name": "trigger",
      "mesh": 2
    },
    {
      "name": "leftgrip",
      "mesh": 3
    },
    {
      "name": "rightgrip",
      "mesh": 4
    },
    {
      "name": "menubutton",
      "mesh": 5
    },
    {
      "name": "systembutton",
      "mesh": 6
    }
  ],
  "scene": 0,
  "scenes": [
    {
      "nodes": [
        0,
        1,
        2,
        3,
        4,
        5,
        6
      ]
    }
  ]
}
